:SAMPLES-PER-SECOND 30
:FULLY-SPECIFIED
:DEGREES
100
root  45.2918 40.679 -2.22548 -43.2389 86.7556 -47.4198
RightUpLeg  -9.85204 6.26264 6.11165
RightLeg  30.1199 8.3989 -0.804799
RightFoot  18.4875 -1.6708 5.87501
RightToes  1.74622e-010 -3.18055e-015 8.94531e-016
Spine  -5.93186 -1.30576 -1.14528
Spine1  13.3865 -3.25621 6.17971
HEad  -11.8364 7.37261 0.350518
LeftShoulder1  0 -2.69403e-036 -1.28585e-037
LeftArm  26.7692 39.7979 -82.1526
LeftForeArm  -41.6017 -23.7273 11.6919
LeftHand  0.695566 5.5437 3.61624
RightShoulder  -2.48481e-017 0 -8.08114e-019
RightArm  35.1457 -49.9602 78.9213
RightForeArm  -39.97 20.1998 -11.5219
RightHand  1.56292 -12.3886 -6.50622
LeftUpLeg  -9.28719 -10.0827 -0.195197
LeftLeg  31.3927 -3.17918 4.62943
LeftFoot  19.3302 2.33514 -7.73821
LeftToes  -8.00353e-011 5.68142e-011 4.78552e-012
101
root  47.3234 42.5261 -2.24022 -44.3204 86.7049 -49.2425
RightUpLeg  -9.38583 8.09848 6.03734
RightLeg  27.0735 8.61648 -0.504509
RightFoot  31.728 -3.19942 7.71552
RightToes  1.74622e-010 -3.18055e-015 8.94531e-016
Spine  -9.71751 -1.16292 -0.710866
Spine1  14.9489 -3.14707 6.03524
HEad  -9.404 6.10423 0.516251
LeftShoulder1  0 -2.69403e-036 -1.28585e-037
LeftArm  28.1257 46.0254 -82.2063
LeftForeArm  -46.4805 -25.8145 16.7261
LeftHand  0.703476 5.36332 1.55475
RightShoulder  -2.48481e-017 0 -8.08114e-019
RightArm  40.0592 -52.6348 77.5877
RightForeArm  -46.5478 20.7484 -16.0355
RightHand  1.35142 -11.3668 -5.38008
LeftUpLeg  -9.37906 -11.3377 -0.0846951
LeftLeg  29.1583 -2.33423 4.61066
LeftFoot  25.778 2.10259 -5.6782
LeftToes  -8.00353e-011 5.68142e-011 4.78552e-012
102
root  48.9985 44.0286 -2.21147 -56.1779 87.1384 -60.9794
RightUpLeg  -10.4719 9.42557 6.36167
RightLeg  28.5903 10.2224 0.384226
RightFoot  32.3639 -3.30088 7.8366
RightToes  1.74622e-010 -3.18055e-015 8.94531e-016
Spine  -8.23412 -1.17244 -1.56775
Spine1  14.5001 -3.36603 6.75838
HEad  -11.4282 4.87748 0.711725
LeftShoulder1  0 -2.69403e-036 -1.28585e-037
LeftArm  25.8562 49.6062 -82.2059
LeftForeArm  -45.2178 -26.9953 17.5641
LeftHand  0.626821 4.76311 0.972295
RightShoulder  -2.48481e-017 0 -8.08114e-019
RightArm  39.8642 -53.4087 76.8192
RightForeArm  -50.6809 20.9973 -18.0615
RightHand  1.2653 -10.9779 -4.67371
LeftUpLeg  -11.6109 -13.2189 0.0529686
LeftLeg  31.0819 -2.21305 5.18968
LeftFoot  22.5051 1.58827 -4.6848
LeftToes  -8.00353e-011 5.68142e-011 4.78552e-012
103
root  50.4867 45.183 -2.16754 -68.6439 87.7068 -72.6024
RightUpLeg  -11.7759 8.65978 6.36661
RightLeg  31.1328 11.8822 1.44973
RightFoot  27.5415 -2.7256 7.32069
RightToes  1.74622e-010 -3.18055e-015 8.94531e-016
Spine  -4.19779 -1.1482 -2.55147
Spine1  13.4054 -3.38812 6.91466
HEad  -13.845 4.01445 1.1138
LeftShoulder1  0 -2.69403e-036 -1.28585e-037
LeftArm  27.4556 51.1676 -82.3972
LeftForeArm  -46.5101 -26.1106 17.0483
LeftHand  0.592591 4.61998 1.50191
RightShoulder  -2.48481e-017 0 -8.08114e-019
RightArm  36.7576 -52.5005 77.7513
RightForeArm  -50.4507 20.9116 -17.1149
RightHand  1.3311 -11.4642 -4.60806
LeftUpLeg  -13.6406 -13.8448 -0.155481
LeftLeg  32.3513 -2.72728 5.18271
LeftFoot  17.0273 1.30195 -4.5938
LeftToes  -8.00353e-011 5.68142e-011 4.78552e-012
104
root  51.9657 46.0412 -2.12942 -81.3314 88.2481 -84.9713
RightUpLeg  -13.3604 6.40731 5.93642
RightLeg  31.0724 12.5477 1.88901
RightFoot  24.9002 -2.74187 7.92106
RightToes  1.74622e-010 -3.18055e-015 8.94531e-016
Spine  -0.890681 -1.19876 -3.33422
Spine1  12.4328 -3.36401 6.63917
HEad  -14.4691 3.34558 1.6067
LeftShoulder1  0 -2.69403e-036 -1.28585e-037
LeftArm  28.9854 52.2059 -82.0809
LeftForeArm  -47.5749 -24.994 14.9081
LeftHand  0.695837 5.29445 1.41101
RightShoulder  -2.48481e-017 0 -8.08114e-019
RightArm  34.6281 -51.2913 79.2472
RightForeArm  -48.1121 20.7363 -15.34
RightHand  1.41424 -11.9734 -4.83714
LeftUpLeg  -15.2638 -13.2945 -0.445546
LeftLeg  30.1931 -3.85533 3.91343
LeftFoot  13.158 1.21612 -4.98083
LeftToes  -8.00353e-011 5.68142e-011 4.78552e-012
105
root  53.4899 46.5559 -2.11806 -102.345 88.336 -106.749
RightUpLeg  -15.5248 3.47385 5.67337
RightLeg  28.2488 12.8646 1.95742
RightFoot  24.2562 -2.94001 8.65103
RightToes  1.74622e-010 -3.18055e-015 8.94531e-016
Spine  0.964765 -1.35537 -3.48591
Spine1  11.4108 -3.39039 6.42594
HEad  -14.1048 2.62353 2.01699
LeftShoulder1  0 -2.69403e-036 -1.28585e-037
LeftArm  28.9466 53.3131 -81.4509
LeftForeArm  -46.8233 -24.2028 12.3733
LeftHand  0.834986 6.10174 -0.103909
RightShoulder  -2.48481e-017 0 -8.08114e-019
RightArm  35.713 -50.8156 80.2038
RightForeArm  -47.9927 20.7457 -15.0865
RightHand  1.4112 -11.917 -4.93953
LeftUpLeg  -17.0501 -12.6287 -0.27821
LeftLeg  25.0998 -4.77745 2.36801
LeftFoot  11.2264 1.28867 -5.74359
LeftToes  -8.00353e-011 5.68142e-011 4.78552e-012
106
root  55.0362 46.6408 -2.13687 -116.883 88.0163 -122.473
RightUpLeg  -17.8627 0.756585 5.69948
RightLeg  24.4071 13.1056 1.89745
RightFoot  21.7972 -2.86824 9.07719
RightToes  1.74622e-010 -3.18055e-015 8.94531e-016
Spine  2.19553 -1.41384 -2.91594
Spine1  10.4715 -3.26486 6.15119
HEad  -14.1465 1.9289 2.07233
LeftShoulder1  0 -2.69403e-036 -1.28585e-037
LeftArm  26.2718 54.2349 -81.0079
LeftForeArm  -42.5413 -23.1936 9.63663
LeftHand  0.885309 6.30623 -2.32249
RightShoulder  -2.48481e-017 0 -8.08114e-019
RightArm  37.5998 -50.9584 80.6421
RightForeArm  -49.6271 20.8659 -15.9128
RightHand  1.34812 -11.5845 -4.60966
LeftUpLeg  -18.7964 -11.9883 0.121348
LeftLeg  19.1051 -4.40119 1.55673
LeftFoot  11.3946 1.52367 -6.76692
LeftToes  -8.00353e-011 5.68142e-011 4.78552e-012
107
root  56.594 46.3071 -2.17655 -122.511 87.7932 -128.978
RightUpLeg  -19.8373 -1.1294 5.6368
RightLeg  20.6541 12.5449 1.47249
RightFoot  17.4786 -2.70201 9.83094
RightToes  1.74622e-010 -3.18055e-015 8.94531e-016
Spine  3.40567 -1.29716 -2.13038
Spine1  9.87464 -2.96085 5.78642
HEad  -14.8854 1.45833 1.61791
LeftShoulder1  0 -2.69403e-036 -1.28585e-037
LeftArm  20.7512 54.9071 -80.8918
LeftForeArm  -36.0534 -21.8429 6.89926
LeftHand  0.885209 6.13829 -4.01022
RightShoulder  -2.48481e-017 0 -8.08114e-019
RightArm  37.4795 -51.1234 81.0806
RightForeArm  -50.1949 20.9004 -16.1659
RightHand  1.3043 -11.4904 -3.9323
LeftUpLeg  -19.838 -7.89861 -0.975322
LeftLeg  13.8187 -6.14584 1.65948
LeftFoot  13.0054 1.73716 -7.227
LeftToes  -8.00353e-011 5.68142e-011 4.78552e-012
108
root  58.173 45.5439 -2.23417 -125.483 87.4907 -132.598
RightUpLeg  -21.6209 -1.99031 5.55661
RightLeg  17.4922 10.9365 0.778145
RightFoot  14.7608 -2.39727 9.61383
RightToes  1.74622e-010 -3.18055e-015 8.94531e-016
Spine  4.48573 -1.14329 -1.15165
Spine1  9.49728 -2.65153 5.44913
HEad  -16.1246 1.18313 1.01886
LeftShoulder1  0 -2.69403e-036 -1.28585e-037
LeftArm  15.165 55.463 -81.1984
LeftForeArm  -32.7823 -20.9601 5.57204
LeftHand  0.913367 6.38902 -4.2952
RightShoulder  -2.48481e-017 0 -8.08114e-019
RightArm  35.4664 -51.063 81.6851
RightForeArm  -48.8356 20.8065 -15.4599
RightHand  1.28805 -11.5396 -3.4293
LeftUpLeg  -20.8867 -5.54053 -1.64629
LeftLeg  10.7674 -6.23272 1.60011
LeftFoot  14.8751 1.86977 -7.23385
LeftToes  -8.00353e-011 5.68142e-011 4.78552e-012
109
root  59.7804 44.2338 -2.30246 -125.804 86.7631 -133.448
RightUpLeg  -23.7394 -0.570826 5.38258
RightLeg  16.4126 8.86813 0.114956
RightFoot  15.3592 -1.87972 7.3753
RightToes  1.74622e-010 -3.18055e-015 8.94531e-016
Spine  5.39473 -0.979716 0.538121
Spine1  9.24266 -2.29917 4.92506
HEad  -18.0533 0.908526 0.635016
LeftShoulder1  0 -2.69403e-036 -1.28585e-037
LeftArm  11.7162 55.3775 -81.9927
LeftForeArm  -33.8458 -20.9506 5.74447
LeftHand  0.957492 6.88622 -3.22748
RightShoulder  -2.48481e-017 0 -8.08114e-019
RightArm  32.8583 -50.5713 82.2249
RightForeArm  -46.1467 20.6184 -14.0839
RightHand  1.25571 -11.317 -3.35245
LeftUpLeg  -22.4979 -6.04014 -1.14368
LeftLeg  10.9457 -5.14735 1.58531
LeftFoot  16.4143 2.04694 -7.49019
LeftToes  -8.00353e-011 5.68142e-011 4.78552e-012
110
root  61.4275 42.336 -2.3463 -125.966 85.997 -133.532
RightUpLeg  -26.3267 3.24575 4.53555
RightLeg  19.9675 8.5317 -0.200658
RightFoot  15.8664 -1.34328 5.1716
RightToes  1.74622e-010 -3.18055e-015 8.94531e-016
Spine  6.44437 -0.72071 2.37402
Spine1  9.2716 -1.77569 4.15911
HEad  -20.7255 0.507595 0.329758
LeftShoulder1  0 -2.69403e-036 -1.28585e-037
LeftArm  9.30304 53.544 -82.635
LeftForeArm  -32.9611 -20.4262 4.87361
LeftHand  0.937303 6.75775 -2.20172
RightShoulder  -2.48481e-017 0 -8.08114e-019
RightArm  29.0061 -49.0908 82.5587
RightForeArm  -41.4658 20.1517 -11.0267
RightHand  1.19376 -10.9139 -3.10676
LeftUpLeg  -24.8637 -9.21251 0.560258
LeftLeg  16.301 -3.31021 1.65751
LeftFoot  15.5321 1.99597 -7.54231
LeftToes  -8.00353e-011 5.68142e-011 4.78552e-012
111
root  63.1274 40.0455 -2.32144 -133.955 85.876 -140.902
RightUpLeg  -29.0571 6.10621 3.12567
RightLeg  29.0434 11.0753 0.900814
RightFoot  10.1431 -0.69604 3.36327
RightToes  1.74622e-010 -3.18055e-015 8.94531e-016
Spine  7.40398 -0.460408 2.59756
Spine1  9.32089 -1.25233 3.44367
HEad  -23.4898 0.0582207 0.471042
LeftShoulder1  0 -2.69403e-036 -1.28585e-037
LeftArm  6.343 49.5683 -82.1314
LeftForeArm  -26.7023 -17.9546 1.25901
LeftHand  0.858847 6.11442 -1.97659
RightShoulder  -2.48481e-017 0 -8.08114e-019
RightArm  21.6243 -46.523 82.9275
RightForeArm  -32.9857 18.5402 -5.25497
RightHand  1.13883 -10.8457 -1.92474
LeftUpLeg  -27.4312 -9.49446 -0.0372762
LeftLeg  26.6628 -5.55081 2.21795
LeftFoot  8.839 1.18693 -5.89837
LeftToes  -8.00353e-011 5.68142e-011 4.78552e-012
112
root  64.8622 37.7053 -2.24209 -153.087 85.9023 -160.165
RightUpLeg  -31.7716 6.07682 1.93091
RightLeg  40.8806 12.7939 2.59722
RightFoot  -2.98866 0.0478185 -0.527788
RightToes  1.74622e-010 -3.18055e-015 8.94531e-016
Spine  7.59343 -0.340657 1.06025
Spine1  8.40017 -0.992955 2.82529
HEad  -26.0535 -0.26377 2.15935
LeftShoulder1  0 -2.69403e-036 -1.28585e-037
LeftArm  4.64732 44.4886 -80.7197
LeftForeArm  -22.4365 -15.0847 -2.01625
LeftHand  0.811408 5.86557 -0.718526
RightShoulder  -2.48481e-017 0 -8.08114e-019
RightArm  13.7772 -43.9724 83.793
RightForeArm  -24.385 15.899 -0.256595
RightHand  1.13316 -11.37 -0.398286
LeftUpLeg  -30.4408 -9.64358 -1.92322
LeftLeg  39.2071 -6.95861 3.38986
LeftFoot  -3.70927 0.203502 -2.5319
LeftToes  -8.00353e-011 5.68142e-011 4.78552e-012
113
root  66.5771 35.7869 -2.16209 -167.842 85.0827 -176.654
RightUpLeg  -34.4402 4.83445 1.6034
RightLeg  50.7595 11.5723 1.71381
RightFoot  -17.5284 -0.188319 -5.04533
RightToes  1.74622e-010 -3.18055e-015 8.94531e-016
Spine  7.55439 -0.492572 -0.642493
Spine1  5.87859 -1.05246 2.31283
HEad  -29.4295 -0.532813 5.08943
LeftShoulder1  0 -2.69403e-036 -1.28585e-037
LeftArm  3.88138 39.8772 -79.7559
LeftForeArm  -23.9316 -15.0795 -2.05245
LeftHand  0.768505 5.95391 3.36904
RightShoulder  -2.48481e-017 0 -8.08114e-019
RightArm  11.8325 -42.5982 84.7728
RightForeArm  -21.3712 15.6706 -0.223347
RightHand  1.22758 -12.231 -0.509266
LeftUpLeg  -33.6351 -10.7836 -3.49435
LeftLeg  49.3864 -6.57419 6.18376
LeftFoot  -17.1686 -0.0485659 0.0681364
LeftToes  -8.00353e-011 5.68142e-011 4.78552e-012
